<svg width="80" height="116" viewBox="0 0 80 116" fill="none" xmlns="http://www.w3.org/2000/svg">
<rect opacity="0.3" x="1" y="1" width="78" height="113.368" fill="#030303" stroke="#A97529" stroke-width="2"/>
<rect opacity="0.3" x="8.94141" y="9.97607" width="34.2093" height="50.8685" fill="#AA762A" stroke="#A97529" stroke-width="3"/>
<path opacity="0.3" d="M37.7793 54.7769H71.9886V105.645H37.7793V54.7769Z" fill="#A97529" stroke="#A97529" stroke-width="3"/>
<path d="M14.9185 15.6343H66.0115V97.9821H14.9185V15.6343Z" fill="#A97529" fill-opacity="0.1" stroke="#650606"/>
<path d="M32.4728 45.207H28.3634L27.5821 47.5508H25.0899L29.3243 36.1758H31.4962L35.754 47.5508H33.2618L32.4728 45.207ZM28.9962 43.3086H31.8399L30.4103 39.0508L28.9962 43.3086ZM41.0274 43.3867H39.1603V47.5508H36.8165V36.1758H41.0431C42.3868 36.1758 43.4233 36.4753 44.1524 37.0742C44.8816 37.6732 45.2462 38.5195 45.2462 39.6133C45.2462 40.3893 45.0769 41.0378 44.7384 41.5586C44.405 42.0742 43.8972 42.4857 43.2149 42.793L45.6759 47.4414V47.5508H43.1603L41.0274 43.3867ZM39.1603 41.4883H41.0509C41.6394 41.4883 42.0952 41.3398 42.4181 41.043C42.741 40.7409 42.9024 40.3268 42.9024 39.8008C42.9024 39.2643 42.7488 38.8424 42.4415 38.5352C42.1394 38.2279 41.6733 38.0742 41.0431 38.0742H39.1603V41.4883ZM55.2071 38.0742H51.7228V47.5508H49.379V38.0742H45.9415V36.1758H55.2071V38.0742Z" fill="url(#paint0_linear_3305_156)"/>
<path d="M33.7307 72.7881C33.7307 73.5967 33.6018 74.2979 33.3439 74.8916C33.09 75.4814 32.7326 75.9502 32.2717 76.2979L33.7365 77.4404L32.7756 78.3076L30.9592 76.8721C30.7209 76.9229 30.465 76.9482 30.1916 76.9482C29.5041 76.9482 28.8889 76.7803 28.3459 76.4443C27.8068 76.1045 27.3889 75.6221 27.092 74.9971C26.799 74.3721 26.6506 73.6514 26.6467 72.835V72.3545C26.6467 71.5225 26.7932 70.7881 27.0861 70.1514C27.383 69.5146 27.799 69.0283 28.3342 68.6924C28.8732 68.3525 29.4885 68.1826 30.1799 68.1826C30.883 68.1826 31.5021 68.3506 32.0373 68.6865C32.5764 69.0186 32.9924 69.499 33.2853 70.1279C33.5783 70.7529 33.7268 71.4814 33.7307 72.3135V72.7881ZM32.2424 72.3428C32.2424 71.3818 32.0627 70.6533 31.7033 70.1572C31.3439 69.6611 30.8361 69.4131 30.1799 69.4131C29.5432 69.4131 29.0432 69.665 28.6799 70.1689C28.3205 70.6689 28.1369 71.376 28.1291 72.29V72.7881C28.1291 73.71 28.3088 74.4307 28.6682 74.9502C29.0314 75.4697 29.5393 75.7295 30.1916 75.7295C30.8518 75.7295 31.3576 75.4795 31.7092 74.9795C32.0646 74.4795 32.2424 73.749 32.2424 72.7881V72.3428ZM41.4768 68.2998V74.001C41.4768 74.9072 41.1857 75.626 40.6037 76.1572C40.0256 76.6846 39.2541 76.9482 38.2893 76.9482C37.3127 76.9482 36.5373 76.6885 35.9631 76.1689C35.3889 75.6455 35.1018 74.9209 35.1018 73.9951V68.2998H36.5783V74.0068C36.5783 74.5771 36.7228 75.0127 37.0119 75.3135C37.301 75.6143 37.7268 75.7646 38.2893 75.7646C39.4299 75.7646 40.0002 75.1631 40.0002 73.96V68.2998H41.4768ZM44.6291 76.8311H43.1525V68.2998H44.6291V76.8311ZM47.8459 75.6475H52.4045V76.8311H46.0529V75.8701L50.465 69.4951H46.0822V68.2998H52.2639V69.2373L47.8459 75.6475Z" fill="url(#paint1_linear_3305_156)"/>
<line y1="-0.5" x2="27.907" y2="-0.5" transform="matrix(0.999889 -0.0148868 0.014524 0.999894 26.0464 58.8716)" stroke="#AA762A"/>
<defs>
<linearGradient id="paint0_linear_3305_156" x1="36.698" y1="32.5508" x2="36.698" y2="62.1453" gradientUnits="userSpaceOnUse">
<stop offset="0.494792" stop-color="#CF943A"/>
<stop offset="1" stop-color="#6C140E" stop-opacity="0"/>
</linearGradient>
<linearGradient id="paint1_linear_3305_156" x1="37.0409" y1="65.8311" x2="37.3701" y2="86.9679" gradientUnits="userSpaceOnUse">
<stop offset="0.505208" stop-color="#CF943A"/>
<stop offset="1" stop-color="#4A1A17" stop-opacity="0"/>
</linearGradient>
</defs>
</svg>
