<svg width="178" height="257" viewBox="0 0 178 257" fill="none" xmlns="http://www.w3.org/2000/svg">
<rect opacity="0.3" x="1.5" y="1.5" width="175" height="254" fill="#030303" stroke="#CF943A" stroke-width="3"/>
<rect opacity="0.3" x="19.5" y="20.3816" width="77" height="117" fill="#AA762A" stroke="#A97529" stroke-width="3"/>
<path opacity="0.3" d="M81.5 120.182H158.5V237.182H81.5V120.182Z" fill="#A97529" stroke="#A97529" stroke-width="3"/>
<path d="M34 34.7144H144V218.384H34V34.7144Z" fill="#A97529" fill-opacity="0.1" stroke="#650606" stroke-width="2"/>
<path d="M69.4609 105.36H58.6738L56.623 111.512H50.0811L61.1963 81.6531H66.8975L78.0742 111.512H71.5322L69.4609 105.36ZM60.335 100.377H67.7998L64.0469 89.2L60.335 100.377ZM91.917 100.582H87.0156V111.512H80.8633V81.6531H91.958C95.4854 81.6531 98.2061 82.4392 100.12 84.0115C102.034 85.5837 102.991 87.8054 102.991 90.6765C102.991 92.7136 102.547 94.4158 101.658 95.783C100.783 97.1365 99.4502 98.2166 97.6592 99.0232L104.119 111.225V111.512H97.5156L91.917 100.582ZM87.0156 95.5984H91.9785C93.5234 95.5984 94.7197 95.2087 95.5674 94.4294C96.415 93.6365 96.8389 92.5496 96.8389 91.1687C96.8389 89.7605 96.4355 88.6531 95.6289 87.8464C94.8359 87.0398 93.6123 86.6365 91.958 86.6365H87.0156V95.5984ZM129.139 86.6365H119.992V111.512H113.84V86.6365H104.816V81.6531H129.139V86.6365Z" fill="url(#paint0_linear_3305_85)"/>
<path d="M74.29 157.86C74.29 159.881 73.9678 161.634 73.3232 163.118C72.6885 164.593 71.7949 165.765 70.6426 166.634L74.3047 169.49L71.9023 171.658L67.3613 168.07C66.7656 168.197 66.126 168.26 65.4424 168.26C63.7236 168.26 62.1855 167.84 60.8281 167C59.4805 166.151 58.4355 164.945 57.6934 163.382C56.9609 161.82 56.5898 160.018 56.5801 157.977V156.776C56.5801 154.696 56.9463 152.86 57.6787 151.268C58.4209 149.676 59.4609 148.46 60.7988 147.62C62.1465 146.771 63.6846 146.346 65.4131 146.346C67.1709 146.346 68.7188 146.766 70.0566 147.606C71.4043 148.436 72.4443 149.637 73.1768 151.209C73.9092 152.772 74.2803 154.593 74.29 156.673V157.86ZM70.5693 156.746C70.5693 154.344 70.1201 152.523 69.2217 151.282C68.3232 150.042 67.0537 149.422 65.4131 149.422C63.8213 149.422 62.5713 150.052 61.6631 151.312C60.7646 152.562 60.3057 154.329 60.2861 156.615V157.86C60.2861 160.164 60.7354 161.966 61.6338 163.265C62.542 164.564 63.8115 165.213 65.4424 165.213C67.0928 165.213 68.3574 164.588 69.2363 163.338C70.125 162.088 70.5693 160.262 70.5693 157.86V156.746ZM93.6553 146.639V160.892C93.6553 163.157 92.9277 164.954 91.4727 166.282C90.0273 167.601 88.0986 168.26 85.6865 168.26C83.2451 168.26 81.3066 167.611 79.8711 166.312C78.4355 165.003 77.7178 163.192 77.7178 160.877V146.639H81.4092V160.906C81.4092 162.332 81.7705 163.421 82.4932 164.173C83.2158 164.925 84.2803 165.301 85.6865 165.301C88.5381 165.301 89.9639 163.797 89.9639 160.789V146.639H93.6553ZM101.536 167.967H97.8447V146.639H101.536V167.967ZM109.578 165.008H120.975V167.967H105.096V165.565L116.126 149.627H105.169V146.639H120.623V148.983L109.578 165.008Z" fill="url(#paint1_linear_3305_85)"/>
<line y1="-1.5" x2="60" y2="-1.5" transform="matrix(0.999881 -0.0154243 0.0140178 0.999902 58 131.146)" stroke="#AA762A" stroke-width="3"/>
<defs>
<linearGradient id="paint0_linear_3305_85" x1="89.5" y1="72.5125" x2="89.5" y2="138.439" gradientUnits="userSpaceOnUse">
<stop offset="0.276042" stop-color="#CF943A"/>
<stop offset="1" stop-color="#6C140E" stop-opacity="0"/>
</linearGradient>
<linearGradient id="paint1_linear_3305_85" x1="88.0864" y1="139.967" x2="88.8462" y2="187.052" gradientUnits="userSpaceOnUse">
<stop offset="0.328125" stop-color="#CF943A"/>
<stop offset="1" stop-color="#4A1A17" stop-opacity="0"/>
</linearGradient>
</defs>
</svg>
