<svg width="85" height="100" viewBox="0 0 85 100" fill="none" xmlns="http://www.w3.org/2000/svg">
<path d="M41.14 44.5815C43.0995 46.6667 39.0732 42.1444 36.5545 39.8741L30.9579 34.8074C27.1329 31.3926 24.6813 28.9407 23.6032 27.4593H43.0995H62.5645C61.4461 28.9407 58.9855 31.3926 55.1874 34.8074L49.6132 39.8741C48.1261 41.2217 46.1093 43.4933 45.1237 44.6036C44.4488 45.3637 44.2573 45.5794 45.05 44.5815L43.0995 46.6667L41.14 44.5815Z" fill="#9c702e"/>
<path fill-rule="evenodd" clip-rule="evenodd" d="M82.7632 92.5926C83.9934 92.5926 85 93.4222 85 94.4444V100H0V94.4444C0 93.4222 1.00211 92.5926 2.23684 92.5926H9.70789C9.93409 77.5712 17.2422 68.7508 22.9202 61.8978C26.5632 57.5009 29.5353 53.9139 29.5353 50.0185C29.5353 46.415 26.9719 44.0214 23.6804 40.9479C17.8208 35.4763 9.65373 27.8501 9.53342 7.40741H2.23684C1.00211 7.40741 0 6.57778 0 5.55556V0H85V5.55556C85 6.57778 83.9934 7.40741 82.7632 7.40741H75.9184C75.7981 27.8501 67.631 35.4763 61.7714 40.9479C58.48 44.0214 55.9166 46.415 55.9166 50.0185C55.9166 53.9139 58.8893 57.5009 62.5332 61.8978C68.2125 68.7508 75.5222 77.5711 75.7484 92.5926H82.7632ZM15.7429 7.40741H69.7089C69.5916 27.8357 61.4351 35.4489 55.5755 40.9183C52.2775 43.9966 49.7071 46.3958 49.7071 50.0185C49.7071 53.7588 52.6183 57.2718 56.2099 61.6061C61.9045 68.478 69.3095 77.4141 69.5345 92.5926H65.535H43.0995H19.3039H15.9129C16.1379 77.4141 23.5446 68.478 29.2404 61.6061C32.8329 57.2718 35.7447 53.7588 35.7447 50.0185C35.7447 46.3958 33.1743 43.9966 29.8763 40.9183C24.0167 35.4489 15.8603 27.8357 15.7429 7.40741Z" fill="#9c702e"/>
</svg>
