<svg width="100" height="82" viewBox="0 0 100 82" fill="none" xmlns="http://www.w3.org/2000/svg">
<path d="M15.3846 23.7388H0V58.0389H15.3846L44.4724 79.6446C44.4724 79.6446 49.7687 84.1002 49.7687 79.4765C49.7687 74.8527 49.7687 5.83218 49.7687 1.62874C49.7687 -1.98622 45.0609 1.54467 45.0609 1.54467L15.3846 23.7388Z" fill="#9c702e"/>
<path d="M65.3939 21.904C64.1725 20.6909 62.1369 20.6909 60.9155 21.904C59.6942 23.1171 59.6942 25.139 60.9155 26.3522C64.9868 30.396 67.0224 35.6529 67.0224 40.9773C67.0224 46.3016 64.9868 51.5585 60.9155 55.6023C59.6942 56.8155 59.6942 58.8374 60.9155 60.0505C61.5262 60.6571 62.3405 60.9941 63.1547 60.9941C63.969 60.9941 64.7832 60.7245 65.3939 60.0505C70.6865 54.7936 73.3328 47.8517 73.3328 40.9773C73.3328 34.0354 70.6865 27.1609 65.3939 21.904Z" fill="#9c702e"/>
<path d="M75.1459 11.9058C73.9808 10.6903 72.0391 10.6903 70.874 11.9058C69.709 13.1213 69.709 15.1472 70.874 16.3627C77.4112 23.1832 80.6475 32.0296 80.6475 40.9435C80.6475 49.8573 77.4112 58.7712 70.874 65.5917C69.709 66.8072 69.709 68.8331 70.874 70.0486C71.4566 70.6564 72.2333 70.9941 73.01 70.9941C73.7867 70.9941 74.5634 70.6564 75.1459 70.0486C82.8481 62.0126 86.6669 51.4105 86.6669 40.9435C86.6669 30.4089 82.8481 19.9418 75.1459 11.9058Z" fill="#9c702e"/>
<path d="M82.4546 1.90208C81.1441 0.691493 78.96 0.691493 77.6496 1.90208C76.3391 3.11267 76.3391 5.13033 77.6496 6.34092C87.9876 15.8911 93.1566 28.4006 93.1566 40.91C93.1566 53.4867 87.9876 65.9961 77.6496 75.6136C76.3391 76.8242 76.3391 78.8419 77.6496 80.0525C78.3048 80.6578 79.1785 80.994 80.0521 80.994C80.9257 80.994 81.7993 80.725 82.4546 80.0525C94.103 69.2244 100 55.1008 100 40.91C100 26.7865 94.103 12.6629 82.4546 1.90208Z" fill="#9c702e"/>
</svg>
