<svg width="25" height="25" viewBox="0 0 25 25" fill="none" xmlns="http://www.w3.org/2000/svg">
<path d="M11.2751 21.9574V16.1709L12.4872 16.3506L13.6993 16.1709V21.9574H11.2751Z" fill="#9c702e"/>
<path d="M4.17094 2.19279C4.17094 2.19279 -0.0152327 0.299285 4.5268e-05 4.00798C4.5268e-05 4.00798 -0.040696 7.28361 2.3223 9.96954C2.3223 9.96954 4.16585 12.3376 7.35895 13.2406C7.35895 13.2406 6.47283 12.0059 6.02977 11.066C6.02977 11.066 3.12694 9.57333 2.08295 6.4958C2.08295 6.4958 0.239401 2.27111 4.16585 3.77302V2.19279H4.17094Z" fill="#9c702e"/>
<path d="M12.4874 16.3505C14.5907 16.3505 16.3375 14.6321 16.3375 14.6321C18.5019 12.6556 19.6834 9.30169 19.6834 9.30169C21.2264 5.64828 20.6612 0 20.6612 0H12.4874H4.3086C4.3086 0 3.7484 5.64828 5.29148 9.30169C5.29148 9.30169 6.47298 12.6602 8.63737 14.6321C8.63737 14.6321 10.3842 16.3505 12.4874 16.3505Z" fill="#9c702e"/>
<path d="M20.8291 2.19279C20.8291 2.19279 25.0153 0.299285 25 4.00798C25 4.00798 25.0408 7.28361 22.6778 9.96954C22.6778 9.96954 20.8342 12.3376 17.6411 13.2406C17.6411 13.2406 18.5272 12.0059 18.9703 11.066C18.9703 11.066 21.8731 9.57333 22.9171 6.4958C22.9171 6.4958 24.7607 2.27111 20.8342 3.77302V2.19279H20.8291Z" fill="#9c702e"/>
<path d="M19.7645 22.667H5.20459V24.5835H19.7645V22.667Z" fill="#9c702e"/>
<path d="M14.9828 21.957H9.99194V22.6665H14.9828V21.957Z" fill="#9c702e"/>
</svg>
