<svg width="30" height="30" viewBox="0 0 30 30" fill="none" xmlns="http://www.w3.org/2000/svg">
<g clip-path="url(#clip0_3305_143)">
<path d="M30 17.02V12.98L26.4137 11.705C26.1663 10.8463 25.8237 10.0275 25.4 9.26125L27.035 5.8225L24.1788 2.96625L20.74 4.6C19.9737 4.17625 19.1537 3.83375 18.2962 3.58625L17.02 0H12.98L11.7037 3.58625C10.8462 3.83375 10.0262 4.175 9.26 4.6L5.82125 2.965L2.965 5.82125L4.6 9.26125C4.17625 10.0275 3.8325 10.8463 3.58625 11.705L0 12.98V17.02L3.58625 18.295C3.8325 19.1537 4.17625 19.9725 4.6 20.7388L2.965 24.1775L5.82125 27.035L9.26 25.4C10.0262 25.8237 10.8462 26.1663 11.7037 26.4137L12.98 30H17.02L18.2962 26.4137C19.155 26.1663 19.9737 25.8237 20.74 25.4L24.1788 27.035L27.035 24.1775L25.4 20.7388C25.8237 19.9725 26.1663 19.1537 26.4137 18.295L30 17.02ZM15 20C12.2387 20 10 17.7612 10 15C10 12.2387 12.2387 10 15 10C17.7612 10 20 12.2387 20 15C20 17.7612 17.7612 20 15 20Z" fill="#9c702e"/>
</g>
<defs>
<clipPath id="clip0_3305_143">
<rect width="30" height="30" fill="white"/>
</clipPath>
</defs>
</svg>
